<?xml version="1.0" standalone="no"?>
<!DOCTYPE svg PUBLIC "-//W3C//DTD SVG 20010904//EN"
 "http://www.w3.org/TR/2001/REC-SVG-20010904/DTD/svg10.dtd">
<svg version="1.0" xmlns="http://www.w3.org/2000/svg"
 width="512.000000pt" height="512.000000pt" viewBox="0 0 512.000000 512.000000"
 preserveAspectRatio="xMidYMid meet">
<metadata>
Created by potrace 1.14, written by Peter Selinger 2001-2017
</metadata>
<g transform="translate(0.000000,512.000000) scale(0.100000,-0.100000)"
fill="#000000" stroke="none">
<path d="M2375 5110 c-1104 -80 -2031 -858 -2298 -1927 -58 -232 -71 -346 -72
-623 0 -277 13 -387 72 -625 227 -909 937 -1622 1848 -1855 244 -62 354 -75
635 -75 305 0 494 27 750 106 511 157 968 479 1297 914 218 287 386 661 457
1015 48 237 64 591 36 785 -14 95 -20 110 -48 110 -12 0 -18 10 -20 37 -2 29
-7 36 -19 31 -12 -5 -14 -1 -9 14 4 13 -1 26 -14 38 -11 10 -20 28 -21 39 0
12 -3 15 -6 9 -6 -16 -33 8 -33 29 0 7 -11 25 -25 40 -14 15 -24 31 -23 35 4
11 -38 64 -45 57 -3 -3 -8 4 -12 15 -3 12 -11 21 -17 21 -5 0 -7 7 -4 16 4 11
2 15 -8 11 -9 -4 -13 -1 -10 6 2 7 -6 23 -19 37 -13 14 -21 32 -19 39 3 9 0
11 -8 6 -8 -5 -11 -3 -8 6 6 17 -22 50 -35 42 -6 -4 -8 1 -4 10 4 10 2 17 -4
17 -6 0 -8 7 -5 16 3 8 2 12 -4 9 -6 -3 -10 1 -10 9 0 8 -4 18 -10 21 -6 4 -7
-1 -3 -11 4 -12 3 -15 -5 -10 -7 4 -12 14 -12 22 0 8 -4 12 -10 9 -5 -3 -7 0
-4 8 3 8 -12 31 -36 55 -26 25 -39 45 -34 53 4 7 3 10 -4 5 -6 -3 -13 2 -16
12 -4 10 -19 32 -34 48 -16 16 -38 45 -49 64 -12 20 -34 47 -49 60 -14 14 -44
50 -66 80 -22 30 -54 68 -72 84 -17 16 -24 25 -16 21 16 -9 -317 325 -359 360
-16 13 -22 15 -17 5 4 -8 -1 -5 -11 8 -10 12 -30 30 -45 40 -14 9 -49 38 -78
65 -28 26 -56 44 -62 41 -7 -4 -8 -2 -4 4 4 7 2 12 -4 12 -6 0 -9 4 -6 9 3 5
0 8 -8 7 -7 0 -34 18 -59 41 -24 23 -47 39 -51 36 -3 -4 -6 -1 -6 6 0 7 -3 10
-7 8 -5 -2 -19 7 -33 20 l-25 25 25 -11 c24 -12 24 -11 5 4 -11 8 -25 13 -32
11 -7 -3 -13 0 -13 6 0 6 -3 9 -6 5 -3 -3 -11 -1 -18 4 -6 5 -20 17 -31 25
-19 14 -19 15 5 4 24 -11 24 -10 6 4 -11 9 -26 16 -34 16 -7 0 -10 5 -6 11 4
7 -1 7 -16 -1 -17 -9 -21 -9 -15 0 8 13 -23 52 -36 44 -5 -3 -9 0 -9 6 0 7 -6
10 -12 8 -7 -3 -26 8 -43 24 -16 15 -38 28 -48 28 -10 0 -15 5 -12 10 3 6 -1
10 -10 10 -8 0 -18 7 -21 15 -4 10 -14 14 -28 10 -11 -2 -15 -2 -8 1 16 7 -3
34 -25 34 -8 0 -11 5 -8 10 3 6 -3 10 -13 10 -11 0 -25 7 -32 15 -7 8 -19 15
-26 15 -8 0 -14 4 -14 8 0 38 -385 70 -625 52z m1351 -819 c168 -6 171 -7 207
-34 65 -50 70 -69 78 -297 12 -318 23 -1551 15 -1592 -8 -45 -49 -96 -91 -114
l-30 -13 30 -1 c17 0 49 -9 72 -19 45 -21 71 -61 347 -541 98 -169 107 -188
101 -223 -15 -101 -105 -210 -203 -248 -49 -19 -87 -23 -277 -30 -402 -15
-1776 -21 -2219 -11 l-429 10 -149 149 -148 148 1003 -3 1002 -3 -148 149
-149 149 499 7 c274 4 513 10 532 13 l33 6 -143 143 -144 144 -545 0 -545 0
-75 74 -75 74 -515 6 c-283 4 -531 11 -550 16 -20 5 -51 25 -70 45 -33 34 -34
37 -42 152 -13 182 9 1600 28 1710 2 18 16 46 31 63 48 58 66 62 317 70 273 8
2005 9 2252 1z"/>
<path d="M1558 4143 l-287 -3 -5 -53 c-10 -89 -26 -854 -26 -1209 l0 -338
1315 0 c1103 0 1316 2 1321 14 3 7 1 239 -4 516 l-9 502 -285 285 -285 285
-724 2 c-398 2 -853 1 -1011 -1z"/>
</g>
</svg>
